<mxfile host="app.diagrams.net" agent="Mozilla/5.0 (X11; Linux x86_64; rv:135.0) Gecko/20100101 Firefox/135.0" version="26.0.16">
  <diagram name="Page-1" id="cF2Al8Hpqpbz9yrhpcLr">
    <mxGraphModel dx="4208" dy="1753" grid="1" gridSize="10" guides="1" tooltips="1" connect="1" arrows="1" fold="1" page="1" pageScale="1" pageWidth="850" pageHeight="1100" math="0" shadow="0">
      <root>
        <mxCell id="0" />
        <mxCell id="1" parent="0" />
        <mxCell id="N1jHnSdW0tSeKLsQd51y-3" value="Beep" style="shape=folder;fontStyle=1;spacingTop=-6;tabWidth=40;tabHeight=14;tabPosition=left;html=1;whiteSpace=wrap;align=left;verticalAlign=top;" parent="1" vertex="1">
          <mxGeometry x="80" y="40" width="3120" height="1130" as="geometry" />
        </mxCell>
        <mxCell id="mBihHvgOK2dlNsI53XR4-33" value="&amp;lt;&amp;lt;extends&amp;gt;&amp;gt;" style="html=1;verticalAlign=bottom;labelBackgroundColor=none;endArrow=open;endFill=0;dashed=1;rounded=0;entryX=1;entryY=0.5;entryDx=0;entryDy=0;exitX=0.5;exitY=1;exitDx=0;exitDy=0;" edge="1" parent="1" source="N1jHnSdW0tSeKLsQd51y-54" target="OYrzO1SeoXvtXVisHG8u-43">
          <mxGeometry width="160" relative="1" as="geometry">
            <mxPoint x="510" y="440" as="sourcePoint" />
            <mxPoint x="530" y="520" as="targetPoint" />
            <Array as="points">
              <mxPoint x="590" y="560" />
            </Array>
          </mxGeometry>
        </mxCell>
        <mxCell id="mBihHvgOK2dlNsI53XR4-11" value="&amp;lt;&amp;lt;extends&amp;gt;&amp;gt;" style="html=1;verticalAlign=bottom;labelBackgroundColor=none;endArrow=open;endFill=0;dashed=1;rounded=0;exitX=0;exitY=0.5;exitDx=0;exitDy=0;entryX=1;entryY=0.5;entryDx=0;entryDy=0;" edge="1" parent="1" source="OYrzO1SeoXvtXVisHG8u-19" target="N1jHnSdW0tSeKLsQd51y-14">
          <mxGeometry width="160" relative="1" as="geometry">
            <mxPoint x="2800" y="530" as="sourcePoint" />
            <mxPoint x="2960" y="530" as="targetPoint" />
            <Array as="points">
              <mxPoint x="2790" y="453" />
              <mxPoint x="2790" y="370" />
            </Array>
          </mxGeometry>
        </mxCell>
        <mxCell id="N1jHnSdW0tSeKLsQd51y-37" style="edgeStyle=orthogonalEdgeStyle;rounded=0;orthogonalLoop=1;jettySize=auto;html=1;endArrow=none;startFill=0;" parent="1" source="N1jHnSdW0tSeKLsQd51y-6" target="N1jHnSdW0tSeKLsQd51y-7" edge="1">
          <mxGeometry relative="1" as="geometry">
            <Array as="points">
              <mxPoint x="20" y="114" />
              <mxPoint x="20" y="115" />
            </Array>
          </mxGeometry>
        </mxCell>
        <mxCell id="N1jHnSdW0tSeKLsQd51y-38" style="edgeStyle=orthogonalEdgeStyle;rounded=0;orthogonalLoop=1;jettySize=auto;html=1;entryX=0;entryY=0.5;entryDx=0;entryDy=0;endArrow=none;startFill=0;" parent="1" source="N1jHnSdW0tSeKLsQd51y-6" target="N1jHnSdW0tSeKLsQd51y-27" edge="1">
          <mxGeometry relative="1" as="geometry" />
        </mxCell>
        <mxCell id="N1jHnSdW0tSeKLsQd51y-6" value="Guest" style="shape=umlActor;verticalLabelPosition=bottom;verticalAlign=top;html=1;" parent="1" vertex="1">
          <mxGeometry x="-70" y="84" width="30" height="60" as="geometry" />
        </mxCell>
        <mxCell id="N1jHnSdW0tSeKLsQd51y-7" value="Register user account" style="ellipse;whiteSpace=wrap;html=1;fontStyle=0" parent="1" vertex="1">
          <mxGeometry x="80" y="80" width="140" height="70" as="geometry" />
        </mxCell>
        <mxCell id="N1jHnSdW0tSeKLsQd51y-14" value="Send a message" style="ellipse;whiteSpace=wrap;html=1;" parent="1" vertex="1">
          <mxGeometry x="2600" y="334" width="140" height="71" as="geometry" />
        </mxCell>
        <mxCell id="N1jHnSdW0tSeKLsQd51y-41" style="edgeStyle=orthogonalEdgeStyle;rounded=0;orthogonalLoop=1;jettySize=auto;html=1;entryX=0.5;entryY=1;entryDx=0;entryDy=0;endArrow=none;startFill=0;" parent="1" source="N1jHnSdW0tSeKLsQd51y-17" target="N1jHnSdW0tSeKLsQd51y-28" edge="1">
          <mxGeometry relative="1" as="geometry" />
        </mxCell>
        <mxCell id="N1jHnSdW0tSeKLsQd51y-42" style="edgeStyle=orthogonalEdgeStyle;rounded=0;orthogonalLoop=1;jettySize=auto;html=1;entryX=0;entryY=0.5;entryDx=0;entryDy=0;endArrow=none;startFill=0;" parent="1" source="N1jHnSdW0tSeKLsQd51y-17" target="N1jHnSdW0tSeKLsQd51y-39" edge="1">
          <mxGeometry relative="1" as="geometry" />
        </mxCell>
        <mxCell id="OYrzO1SeoXvtXVisHG8u-14" style="edgeStyle=orthogonalEdgeStyle;rounded=0;orthogonalLoop=1;jettySize=auto;html=1;entryX=0;entryY=0.5;entryDx=0;entryDy=0;endArrow=none;startFill=0;" parent="1" source="N1jHnSdW0tSeKLsQd51y-17" target="OYrzO1SeoXvtXVisHG8u-11" edge="1">
          <mxGeometry relative="1" as="geometry" />
        </mxCell>
        <mxCell id="OYrzO1SeoXvtXVisHG8u-46" style="edgeStyle=orthogonalEdgeStyle;rounded=0;orthogonalLoop=1;jettySize=auto;html=1;entryX=0;entryY=0.5;entryDx=0;entryDy=0;endArrow=none;startFill=0;" parent="1" source="N1jHnSdW0tSeKLsQd51y-17" target="OYrzO1SeoXvtXVisHG8u-43" edge="1">
          <mxGeometry relative="1" as="geometry" />
        </mxCell>
        <mxCell id="mBihHvgOK2dlNsI53XR4-42" style="edgeStyle=orthogonalEdgeStyle;rounded=0;orthogonalLoop=1;jettySize=auto;html=1;endArrow=block;endFill=0;" edge="1" parent="1" source="N1jHnSdW0tSeKLsQd51y-17">
          <mxGeometry relative="1" as="geometry">
            <mxPoint x="-55" y="170" as="targetPoint" />
          </mxGeometry>
        </mxCell>
        <mxCell id="N1jHnSdW0tSeKLsQd51y-17" value="User" style="shape=umlActor;verticalLabelPosition=bottom;verticalAlign=top;html=1;" parent="1" vertex="1">
          <mxGeometry x="-70" y="295" width="30" height="60" as="geometry" />
        </mxCell>
        <mxCell id="N1jHnSdW0tSeKLsQd51y-21" value="Mention user(s)" style="ellipse;whiteSpace=wrap;html=1;" parent="1" vertex="1">
          <mxGeometry x="2940" y="334" width="140" height="71" as="geometry" />
        </mxCell>
        <mxCell id="N1jHnSdW0tSeKLsQd51y-27" value="Login" style="ellipse;whiteSpace=wrap;html=1;fontStyle=0" parent="1" vertex="1">
          <mxGeometry x="80" y="215" width="140" height="70" as="geometry" />
        </mxCell>
        <mxCell id="N1jHnSdW0tSeKLsQd51y-28" value="Logout" style="ellipse;whiteSpace=wrap;html=1;fontStyle=0" parent="1" vertex="1">
          <mxGeometry x="290" y="215" width="140" height="70" as="geometry" />
        </mxCell>
        <mxCell id="OYrzO1SeoXvtXVisHG8u-47" style="edgeStyle=orthogonalEdgeStyle;rounded=0;orthogonalLoop=1;jettySize=auto;html=1;endArrow=none;startFill=0;" parent="1" source="N1jHnSdW0tSeKLsQd51y-31" target="N1jHnSdW0tSeKLsQd51y-45" edge="1">
          <mxGeometry relative="1" as="geometry" />
        </mxCell>
        <mxCell id="OYrzO1SeoXvtXVisHG8u-50" style="edgeStyle=orthogonalEdgeStyle;rounded=0;orthogonalLoop=1;jettySize=auto;html=1;entryX=0.5;entryY=0;entryDx=0;entryDy=0;endArrow=none;startFill=0;" parent="1" source="N1jHnSdW0tSeKLsQd51y-31" target="OYrzO1SeoXvtXVisHG8u-4" edge="1">
          <mxGeometry relative="1" as="geometry" />
        </mxCell>
        <mxCell id="mBihHvgOK2dlNsI53XR4-1" style="edgeStyle=orthogonalEdgeStyle;rounded=0;orthogonalLoop=1;jettySize=auto;html=1;endArrow=none;startFill=0;" edge="1" parent="1" source="N1jHnSdW0tSeKLsQd51y-31" target="OYrzO1SeoXvtXVisHG8u-3">
          <mxGeometry relative="1" as="geometry" />
        </mxCell>
        <mxCell id="mBihHvgOK2dlNsI53XR4-2" style="edgeStyle=orthogonalEdgeStyle;rounded=0;orthogonalLoop=1;jettySize=auto;html=1;endArrow=none;startFill=0;" edge="1" parent="1" target="N1jHnSdW0tSeKLsQd51y-44">
          <mxGeometry relative="1" as="geometry">
            <mxPoint x="-50" y="697" as="sourcePoint" />
          </mxGeometry>
        </mxCell>
        <mxCell id="mBihHvgOK2dlNsI53XR4-40" style="edgeStyle=orthogonalEdgeStyle;rounded=0;orthogonalLoop=1;jettySize=auto;html=1;endArrow=block;endFill=0;" edge="1" parent="1" source="N1jHnSdW0tSeKLsQd51y-31">
          <mxGeometry relative="1" as="geometry">
            <mxPoint x="-55" y="380" as="targetPoint" />
          </mxGeometry>
        </mxCell>
        <mxCell id="N1jHnSdW0tSeKLsQd51y-31" value="Member" style="shape=umlActor;verticalLabelPosition=bottom;verticalAlign=top;html=1;" parent="1" vertex="1">
          <mxGeometry x="-70" y="667" width="30" height="60" as="geometry" />
        </mxCell>
        <mxCell id="OYrzO1SeoXvtXVisHG8u-25" style="edgeStyle=orthogonalEdgeStyle;rounded=0;orthogonalLoop=1;jettySize=auto;html=1;endArrow=none;startFill=0;" parent="1" source="N1jHnSdW0tSeKLsQd51y-33" target="OYrzO1SeoXvtXVisHG8u-21" edge="1">
          <mxGeometry relative="1" as="geometry">
            <Array as="points">
              <mxPoint x="1280" y="1051" />
            </Array>
          </mxGeometry>
        </mxCell>
        <mxCell id="OYrzO1SeoXvtXVisHG8u-27" style="edgeStyle=orthogonalEdgeStyle;rounded=0;orthogonalLoop=1;jettySize=auto;html=1;entryX=0.5;entryY=1;entryDx=0;entryDy=0;endArrow=none;startFill=0;" parent="1" source="N1jHnSdW0tSeKLsQd51y-33" target="N1jHnSdW0tSeKLsQd51y-48" edge="1">
          <mxGeometry relative="1" as="geometry">
            <Array as="points">
              <mxPoint x="2240" y="1051" />
            </Array>
          </mxGeometry>
        </mxCell>
        <mxCell id="OYrzO1SeoXvtXVisHG8u-28" style="edgeStyle=orthogonalEdgeStyle;rounded=0;orthogonalLoop=1;jettySize=auto;html=1;entryX=0.5;entryY=1;entryDx=0;entryDy=0;endArrow=none;startFill=0;" parent="1" source="N1jHnSdW0tSeKLsQd51y-33" target="N1jHnSdW0tSeKLsQd51y-49" edge="1">
          <mxGeometry relative="1" as="geometry">
            <Array as="points">
              <mxPoint x="1890" y="1051" />
            </Array>
          </mxGeometry>
        </mxCell>
        <mxCell id="OYrzO1SeoXvtXVisHG8u-34" style="edgeStyle=orthogonalEdgeStyle;rounded=0;orthogonalLoop=1;jettySize=auto;html=1;endArrow=none;startFill=0;" parent="1" source="N1jHnSdW0tSeKLsQd51y-33" target="OYrzO1SeoXvtXVisHG8u-32" edge="1">
          <mxGeometry relative="1" as="geometry">
            <Array as="points">
              <mxPoint x="1440" y="1051" />
            </Array>
          </mxGeometry>
        </mxCell>
        <mxCell id="OYrzO1SeoXvtXVisHG8u-37" style="edgeStyle=orthogonalEdgeStyle;rounded=0;orthogonalLoop=1;jettySize=auto;html=1;entryX=0.5;entryY=1;entryDx=0;entryDy=0;endArrow=none;startFill=0;" parent="1" source="N1jHnSdW0tSeKLsQd51y-33" target="OYrzO1SeoXvtXVisHG8u-36" edge="1">
          <mxGeometry relative="1" as="geometry">
            <Array as="points">
              <mxPoint x="1590" y="1051" />
            </Array>
          </mxGeometry>
        </mxCell>
        <mxCell id="OYrzO1SeoXvtXVisHG8u-41" style="edgeStyle=orthogonalEdgeStyle;rounded=0;orthogonalLoop=1;jettySize=auto;html=1;entryX=0.5;entryY=1;entryDx=0;entryDy=0;endArrow=none;startFill=0;" parent="1" source="N1jHnSdW0tSeKLsQd51y-33" target="OYrzO1SeoXvtXVisHG8u-40" edge="1">
          <mxGeometry relative="1" as="geometry">
            <Array as="points">
              <mxPoint x="1740" y="1051" />
            </Array>
          </mxGeometry>
        </mxCell>
        <mxCell id="mBihHvgOK2dlNsI53XR4-3" style="edgeStyle=orthogonalEdgeStyle;rounded=0;orthogonalLoop=1;jettySize=auto;html=1;entryX=0.5;entryY=1;entryDx=0;entryDy=0;endArrow=none;startFill=0;" edge="1" parent="1" source="N1jHnSdW0tSeKLsQd51y-33" target="OYrzO1SeoXvtXVisHG8u-18">
          <mxGeometry relative="1" as="geometry" />
        </mxCell>
        <mxCell id="mBihHvgOK2dlNsI53XR4-4" style="edgeStyle=orthogonalEdgeStyle;rounded=0;orthogonalLoop=1;jettySize=auto;html=1;entryX=0.5;entryY=1;entryDx=0;entryDy=0;endArrow=none;startFill=0;" edge="1" parent="1" source="N1jHnSdW0tSeKLsQd51y-33" target="OYrzO1SeoXvtXVisHG8u-17">
          <mxGeometry relative="1" as="geometry" />
        </mxCell>
        <mxCell id="mBihHvgOK2dlNsI53XR4-5" style="edgeStyle=orthogonalEdgeStyle;rounded=0;orthogonalLoop=1;jettySize=auto;html=1;endArrow=none;startFill=0;" edge="1" parent="1" source="N1jHnSdW0tSeKLsQd51y-33" target="N1jHnSdW0tSeKLsQd51y-14">
          <mxGeometry relative="1" as="geometry" />
        </mxCell>
        <mxCell id="mBihHvgOK2dlNsI53XR4-6" style="edgeStyle=orthogonalEdgeStyle;rounded=0;orthogonalLoop=1;jettySize=auto;html=1;entryX=0.5;entryY=1;entryDx=0;entryDy=0;endArrow=none;startFill=0;" edge="1" parent="1" source="N1jHnSdW0tSeKLsQd51y-33" target="OYrzO1SeoXvtXVisHG8u-19">
          <mxGeometry relative="1" as="geometry" />
        </mxCell>
        <mxCell id="mBihHvgOK2dlNsI53XR4-7" style="edgeStyle=orthogonalEdgeStyle;rounded=0;orthogonalLoop=1;jettySize=auto;html=1;endArrow=none;startFill=0;" edge="1" parent="1" source="N1jHnSdW0tSeKLsQd51y-33" target="N1jHnSdW0tSeKLsQd51y-21">
          <mxGeometry relative="1" as="geometry" />
        </mxCell>
        <mxCell id="mBihHvgOK2dlNsI53XR4-8" style="edgeStyle=orthogonalEdgeStyle;rounded=0;orthogonalLoop=1;jettySize=auto;html=1;entryX=0.5;entryY=1;entryDx=0;entryDy=0;endArrow=none;startFill=0;" edge="1" parent="1" source="N1jHnSdW0tSeKLsQd51y-33" target="N1jHnSdW0tSeKLsQd51y-50">
          <mxGeometry relative="1" as="geometry" />
        </mxCell>
        <mxCell id="mBihHvgOK2dlNsI53XR4-41" style="edgeStyle=orthogonalEdgeStyle;rounded=0;orthogonalLoop=1;jettySize=auto;html=1;endArrow=block;endFill=0;" edge="1" parent="1" source="N1jHnSdW0tSeKLsQd51y-33">
          <mxGeometry relative="1" as="geometry">
            <mxPoint x="-55" y="750" as="targetPoint" />
          </mxGeometry>
        </mxCell>
        <mxCell id="N1jHnSdW0tSeKLsQd51y-33" value="&lt;div&gt;Authorized&lt;/div&gt;&lt;div&gt;member&lt;/div&gt;" style="shape=umlActor;verticalLabelPosition=bottom;verticalAlign=top;html=1;" parent="1" vertex="1">
          <mxGeometry x="-70" y="1021" width="30" height="60" as="geometry" />
        </mxCell>
        <mxCell id="N1jHnSdW0tSeKLsQd51y-39" value="Explore public servers" style="ellipse;whiteSpace=wrap;html=1;fontStyle=0" parent="1" vertex="1">
          <mxGeometry x="80" y="365" width="140" height="70" as="geometry" />
        </mxCell>
        <mxCell id="N1jHnSdW0tSeKLsQd51y-40" value="&lt;div&gt;Join a server for the first time&lt;/div&gt;" style="ellipse;whiteSpace=wrap;html=1;fontStyle=0" parent="1" vertex="1">
          <mxGeometry x="300" y="365" width="140" height="70" as="geometry" />
        </mxCell>
        <mxCell id="N1jHnSdW0tSeKLsQd51y-44" value="Update or delete my account" style="ellipse;whiteSpace=wrap;html=1;" parent="1" vertex="1">
          <mxGeometry x="640" y="844" width="140" height="70" as="geometry" />
        </mxCell>
        <mxCell id="N1jHnSdW0tSeKLsQd51y-45" value="Review my account" style="ellipse;whiteSpace=wrap;html=1;" parent="1" vertex="1">
          <mxGeometry x="870" y="844" width="140" height="70" as="geometry" />
        </mxCell>
        <mxCell id="N1jHnSdW0tSeKLsQd51y-48" value="Enter a text channel" style="ellipse;whiteSpace=wrap;html=1;fontStyle=0" parent="1" vertex="1">
          <mxGeometry x="2170" y="417" width="140" height="71" as="geometry" />
        </mxCell>
        <mxCell id="N1jHnSdW0tSeKLsQd51y-49" value="Enter a voice channel" style="ellipse;whiteSpace=wrap;html=1;fontStyle=0" parent="1" vertex="1">
          <mxGeometry x="1820" y="524" width="140" height="71" as="geometry" />
        </mxCell>
        <mxCell id="N1jHnSdW0tSeKLsQd51y-50" value="Answer a message" style="ellipse;whiteSpace=wrap;html=1;" parent="1" vertex="1">
          <mxGeometry x="3040" y="254" width="140" height="71" as="geometry" />
        </mxCell>
        <mxCell id="N1jHnSdW0tSeKLsQd51y-54" value="Enter a server" style="ellipse;whiteSpace=wrap;html=1;fontStyle=0" parent="1" vertex="1">
          <mxGeometry x="520" y="365" width="140" height="70" as="geometry" />
        </mxCell>
        <mxCell id="OYrzO1SeoXvtXVisHG8u-3" value="Send a friend request" style="ellipse;whiteSpace=wrap;html=1;" parent="1" vertex="1">
          <mxGeometry x="270" y="925" width="140" height="70" as="geometry" />
        </mxCell>
        <mxCell id="OYrzO1SeoXvtXVisHG8u-4" value="See others&#39; accounts" style="ellipse;whiteSpace=wrap;html=1;" parent="1" vertex="1">
          <mxGeometry x="490" y="925" width="140" height="70" as="geometry" />
        </mxCell>
        <mxCell id="OYrzO1SeoXvtXVisHG8u-8" value="Share voice or video" style="ellipse;whiteSpace=wrap;html=1;fontStyle=0" parent="1" vertex="1">
          <mxGeometry x="2050" y="524" width="140" height="71" as="geometry" />
        </mxCell>
        <mxCell id="OYrzO1SeoXvtXVisHG8u-11" value="Use a server invite" style="ellipse;whiteSpace=wrap;html=1;fontStyle=0" parent="1" vertex="1">
          <mxGeometry x="80" y="447" width="140" height="70" as="geometry" />
        </mxCell>
        <mxCell id="OYrzO1SeoXvtXVisHG8u-17" value="Pin a message" style="ellipse;whiteSpace=wrap;html=1;" parent="1" vertex="1">
          <mxGeometry x="2500" y="417" width="140" height="71" as="geometry" />
        </mxCell>
        <mxCell id="OYrzO1SeoXvtXVisHG8u-18" value="See pinned messages" style="ellipse;whiteSpace=wrap;html=1;" parent="1" vertex="1">
          <mxGeometry x="2400" y="500" width="140" height="71" as="geometry" />
        </mxCell>
        <mxCell id="OYrzO1SeoXvtXVisHG8u-19" value="Include file(s)" style="ellipse;whiteSpace=wrap;html=1;" parent="1" vertex="1">
          <mxGeometry x="2840" y="417" width="140" height="71" as="geometry" />
        </mxCell>
        <mxCell id="OYrzO1SeoXvtXVisHG8u-21" value="Generate a server invite" style="ellipse;whiteSpace=wrap;html=1;" parent="1" vertex="1">
          <mxGeometry x="1210" y="804" width="140" height="70" as="geometry" />
        </mxCell>
        <mxCell id="OYrzO1SeoXvtXVisHG8u-32" value="Create channels or categories" style="ellipse;whiteSpace=wrap;html=1;" parent="1" vertex="1">
          <mxGeometry x="1370" y="740" width="140" height="70" as="geometry" />
        </mxCell>
        <mxCell id="OYrzO1SeoXvtXVisHG8u-36" value="Update or delete channels and categories" style="ellipse;whiteSpace=wrap;html=1;" parent="1" vertex="1">
          <mxGeometry x="1520" y="670" width="140" height="70" as="geometry" />
        </mxCell>
        <mxCell id="OYrzO1SeoXvtXVisHG8u-40" value="Update or delete the server" style="ellipse;whiteSpace=wrap;html=1;" parent="1" vertex="1">
          <mxGeometry x="1670" y="600" width="140" height="70" as="geometry" />
        </mxCell>
        <mxCell id="OYrzO1SeoXvtXVisHG8u-43" value="Access my servers" style="ellipse;whiteSpace=wrap;html=1;fontStyle=0" parent="1" vertex="1">
          <mxGeometry x="80" y="530" width="140" height="70" as="geometry" />
        </mxCell>
        <mxCell id="mBihHvgOK2dlNsI53XR4-13" value="&amp;lt;&amp;lt;extends&amp;gt;&amp;gt;" style="html=1;verticalAlign=bottom;labelBackgroundColor=none;endArrow=open;endFill=0;dashed=1;rounded=0;exitX=0;exitY=0.5;exitDx=0;exitDy=0;entryX=1;entryY=0.5;entryDx=0;entryDy=0;" edge="1" parent="1" source="N1jHnSdW0tSeKLsQd51y-21" target="N1jHnSdW0tSeKLsQd51y-14">
          <mxGeometry width="160" relative="1" as="geometry">
            <mxPoint x="2810" y="380" as="sourcePoint" />
            <mxPoint x="2970" y="380" as="targetPoint" />
          </mxGeometry>
        </mxCell>
        <mxCell id="mBihHvgOK2dlNsI53XR4-14" value="&amp;lt;&amp;lt;extends&amp;gt;&amp;gt;" style="html=1;verticalAlign=bottom;labelBackgroundColor=none;endArrow=open;endFill=0;dashed=1;rounded=0;exitX=0;exitY=0.5;exitDx=0;exitDy=0;" edge="1" parent="1" source="N1jHnSdW0tSeKLsQd51y-50">
          <mxGeometry width="160" relative="1" as="geometry">
            <mxPoint x="2850" y="250" as="sourcePoint" />
            <mxPoint x="2740" y="370" as="targetPoint" />
            <Array as="points">
              <mxPoint x="2890" y="290" />
              <mxPoint x="2890" y="370" />
            </Array>
          </mxGeometry>
        </mxCell>
        <mxCell id="mBihHvgOK2dlNsI53XR4-15" value="&amp;lt;&amp;lt;extends&amp;gt;&amp;gt;" style="html=1;verticalAlign=bottom;labelBackgroundColor=none;endArrow=open;endFill=0;dashed=1;rounded=0;exitX=0;exitY=0.5;exitDx=0;exitDy=0;entryX=1;entryY=0.5;entryDx=0;entryDy=0;" edge="1" parent="1" source="OYrzO1SeoXvtXVisHG8u-8" target="N1jHnSdW0tSeKLsQd51y-49">
          <mxGeometry width="160" relative="1" as="geometry">
            <mxPoint x="1980" y="630" as="sourcePoint" />
            <mxPoint x="2140" y="630" as="targetPoint" />
          </mxGeometry>
        </mxCell>
        <mxCell id="mBihHvgOK2dlNsI53XR4-16" value="&amp;lt;&amp;lt;include&amp;gt;&amp;gt;" style="html=1;verticalAlign=bottom;labelBackgroundColor=none;endArrow=open;endFill=0;dashed=1;rounded=0;exitX=0.5;exitY=0;exitDx=0;exitDy=0;" edge="1" parent="1" source="N1jHnSdW0tSeKLsQd51y-48" target="N1jHnSdW0tSeKLsQd51y-54">
          <mxGeometry width="160" relative="1" as="geometry">
            <mxPoint x="1840" y="380" as="sourcePoint" />
            <mxPoint x="2000" y="380" as="targetPoint" />
            <Array as="points">
              <mxPoint x="2240" y="400" />
            </Array>
          </mxGeometry>
        </mxCell>
        <mxCell id="mBihHvgOK2dlNsI53XR4-17" value="&amp;lt;&amp;lt;extends&amp;gt;&amp;gt;" style="html=1;verticalAlign=bottom;labelBackgroundColor=none;endArrow=open;endFill=0;dashed=1;rounded=0;" edge="1" parent="1" target="N1jHnSdW0tSeKLsQd51y-54">
          <mxGeometry x="-0.0143" width="160" relative="1" as="geometry">
            <mxPoint x="1820" y="560" as="sourcePoint" />
            <mxPoint x="1090" y="400" as="targetPoint" />
            <Array as="points">
              <mxPoint x="1090" y="560" />
              <mxPoint x="1090" y="400" />
            </Array>
            <mxPoint as="offset" />
          </mxGeometry>
        </mxCell>
        <mxCell id="mBihHvgOK2dlNsI53XR4-18" value="&amp;lt;&amp;lt;extends&amp;gt;&amp;gt;" style="html=1;verticalAlign=bottom;labelBackgroundColor=none;endArrow=open;endFill=0;dashed=1;rounded=0;exitX=0;exitY=0.5;exitDx=0;exitDy=0;entryX=1;entryY=0.5;entryDx=0;entryDy=0;" edge="1" parent="1" source="OYrzO1SeoXvtXVisHG8u-40" target="N1jHnSdW0tSeKLsQd51y-54">
          <mxGeometry x="-0.1849" width="160" relative="1" as="geometry">
            <mxPoint x="1820" y="635" as="sourcePoint" />
            <mxPoint x="580" y="475" as="targetPoint" />
            <Array as="points">
              <mxPoint x="1090" y="635" />
              <mxPoint x="1090" y="400" />
            </Array>
            <mxPoint as="offset" />
          </mxGeometry>
        </mxCell>
        <mxCell id="mBihHvgOK2dlNsI53XR4-20" value="&amp;lt;&amp;lt;extends&amp;gt;&amp;gt;" style="html=1;verticalAlign=bottom;labelBackgroundColor=none;endArrow=open;endFill=0;dashed=1;rounded=0;exitX=0;exitY=0.5;exitDx=0;exitDy=0;" edge="1" parent="1" source="OYrzO1SeoXvtXVisHG8u-36" target="N1jHnSdW0tSeKLsQd51y-54">
          <mxGeometry x="-0.3735" width="160" relative="1" as="geometry">
            <mxPoint x="1670" y="705" as="sourcePoint" />
            <mxPoint x="580" y="400" as="targetPoint" />
            <Array as="points">
              <mxPoint x="1090" y="705" />
              <mxPoint x="1090" y="400" />
            </Array>
            <mxPoint as="offset" />
          </mxGeometry>
        </mxCell>
        <mxCell id="mBihHvgOK2dlNsI53XR4-22" value="&amp;lt;&amp;lt;extends&amp;gt;&amp;gt;" style="html=1;verticalAlign=bottom;labelBackgroundColor=none;endArrow=open;endFill=0;dashed=1;rounded=0;" edge="1" parent="1" source="OYrzO1SeoXvtXVisHG8u-32" target="N1jHnSdW0tSeKLsQd51y-54">
          <mxGeometry x="-0.588" width="160" relative="1" as="geometry">
            <mxPoint x="1520" y="775" as="sourcePoint" />
            <mxPoint x="580" y="400" as="targetPoint" />
            <Array as="points">
              <mxPoint x="1090" y="775" />
              <mxPoint x="1090" y="400" />
            </Array>
            <mxPoint as="offset" />
          </mxGeometry>
        </mxCell>
        <mxCell id="mBihHvgOK2dlNsI53XR4-23" value="&amp;lt;&amp;lt;extends&amp;gt;&amp;gt;" style="html=1;verticalAlign=bottom;labelBackgroundColor=none;endArrow=open;endFill=0;dashed=1;rounded=0;exitX=0;exitY=0.5;exitDx=0;exitDy=0;entryX=1;entryY=0.5;entryDx=0;entryDy=0;" edge="1" parent="1" source="OYrzO1SeoXvtXVisHG8u-21" target="N1jHnSdW0tSeKLsQd51y-54">
          <mxGeometry x="-0.8503" y="1" width="160" relative="1" as="geometry">
            <mxPoint x="1520" y="839" as="sourcePoint" />
            <mxPoint x="580" y="534" as="targetPoint" />
            <Array as="points">
              <mxPoint x="1090" y="839" />
              <mxPoint x="1090" y="400" />
            </Array>
            <mxPoint as="offset" />
          </mxGeometry>
        </mxCell>
        <mxCell id="mBihHvgOK2dlNsI53XR4-24" value="&amp;lt;&amp;lt;extends&amp;gt;&amp;gt;" style="html=1;verticalAlign=bottom;labelBackgroundColor=none;endArrow=open;endFill=0;dashed=1;rounded=0;exitX=1;exitY=0.5;exitDx=0;exitDy=0;entryX=0;entryY=0.5;entryDx=0;entryDy=0;" edge="1" parent="1" source="N1jHnSdW0tSeKLsQd51y-44" target="N1jHnSdW0tSeKLsQd51y-45">
          <mxGeometry width="160" relative="1" as="geometry">
            <mxPoint x="800" y="820" as="sourcePoint" />
            <mxPoint x="960" y="820" as="targetPoint" />
          </mxGeometry>
        </mxCell>
        <mxCell id="mBihHvgOK2dlNsI53XR4-25" value="&amp;lt;&amp;lt;extends&amp;gt;&amp;gt;" style="html=1;verticalAlign=bottom;labelBackgroundColor=none;endArrow=open;endFill=0;dashed=1;rounded=0;exitX=1;exitY=0.5;exitDx=0;exitDy=0;" edge="1" parent="1" source="OYrzO1SeoXvtXVisHG8u-3" target="OYrzO1SeoXvtXVisHG8u-4">
          <mxGeometry width="160" relative="1" as="geometry">
            <mxPoint x="500" y="830" as="sourcePoint" />
            <mxPoint x="660" y="830" as="targetPoint" />
          </mxGeometry>
        </mxCell>
        <mxCell id="mBihHvgOK2dlNsI53XR4-27" value="&amp;lt;&amp;lt;extends&amp;gt;&amp;gt;" style="html=1;verticalAlign=bottom;labelBackgroundColor=none;endArrow=none;endFill=0;dashed=1;rounded=0;entryX=1;entryY=0.5;entryDx=0;entryDy=0;exitX=1;exitY=0.5;exitDx=0;exitDy=0;startArrow=open;startFill=0;" edge="1" parent="1" source="N1jHnSdW0tSeKLsQd51y-54" target="N1jHnSdW0tSeKLsQd51y-45">
          <mxGeometry x="0.9252" width="160" relative="1" as="geometry">
            <mxPoint x="1010" y="840" as="sourcePoint" />
            <mxPoint x="1170" y="840" as="targetPoint" />
            <Array as="points">
              <mxPoint x="1090" y="400" />
              <mxPoint x="1090" y="880" />
            </Array>
            <mxPoint as="offset" />
          </mxGeometry>
        </mxCell>
        <mxCell id="mBihHvgOK2dlNsI53XR4-29" value="&amp;lt;&amp;lt;extends&amp;gt;&amp;gt;" style="html=1;verticalAlign=bottom;labelBackgroundColor=none;endArrow=open;endFill=0;dashed=1;rounded=0;exitX=1;exitY=0.5;exitDx=0;exitDy=0;entryX=1;entryY=0.5;entryDx=0;entryDy=0;" edge="1" parent="1" source="OYrzO1SeoXvtXVisHG8u-4" target="N1jHnSdW0tSeKLsQd51y-54">
          <mxGeometry x="-0.6993" width="160" relative="1" as="geometry">
            <mxPoint x="800" y="950" as="sourcePoint" />
            <mxPoint x="960" y="950" as="targetPoint" />
            <Array as="points">
              <mxPoint x="1090" y="960" />
              <mxPoint x="1090" y="400" />
            </Array>
            <mxPoint as="offset" />
          </mxGeometry>
        </mxCell>
        <mxCell id="mBihHvgOK2dlNsI53XR4-30" value="&amp;lt;&amp;lt;extends&amp;gt;&amp;gt;" style="html=1;verticalAlign=bottom;labelBackgroundColor=none;endArrow=open;endFill=0;dashed=1;rounded=0;entryX=1;entryY=0.5;entryDx=0;entryDy=0;exitX=0;exitY=0.5;exitDx=0;exitDy=0;" edge="1" parent="1" source="OYrzO1SeoXvtXVisHG8u-18" target="N1jHnSdW0tSeKLsQd51y-48">
          <mxGeometry width="160" relative="1" as="geometry">
            <mxPoint x="2300" y="570" as="sourcePoint" />
            <mxPoint x="2460" y="570" as="targetPoint" />
            <Array as="points">
              <mxPoint x="2360" y="536" />
              <mxPoint x="2360" y="452" />
            </Array>
          </mxGeometry>
        </mxCell>
        <mxCell id="mBihHvgOK2dlNsI53XR4-31" value="&amp;lt;&amp;lt;extends&amp;gt;&amp;gt;" style="html=1;verticalAlign=bottom;labelBackgroundColor=none;endArrow=open;endFill=0;dashed=1;rounded=0;entryX=1;entryY=0.5;entryDx=0;entryDy=0;exitX=0;exitY=0.5;exitDx=0;exitDy=0;" edge="1" parent="1" source="OYrzO1SeoXvtXVisHG8u-17" target="N1jHnSdW0tSeKLsQd51y-48">
          <mxGeometry width="160" relative="1" as="geometry">
            <mxPoint x="2340" y="450" as="sourcePoint" />
            <mxPoint x="2500" y="450" as="targetPoint" />
          </mxGeometry>
        </mxCell>
        <mxCell id="mBihHvgOK2dlNsI53XR4-32" value="&amp;lt;&amp;lt;extends&amp;gt;&amp;gt;" style="html=1;verticalAlign=bottom;labelBackgroundColor=none;endArrow=open;endFill=0;dashed=1;rounded=0;exitX=0;exitY=0.5;exitDx=0;exitDy=0;entryX=1;entryY=0.5;entryDx=0;entryDy=0;" edge="1" parent="1" source="N1jHnSdW0tSeKLsQd51y-14" target="N1jHnSdW0tSeKLsQd51y-48">
          <mxGeometry width="160" relative="1" as="geometry">
            <mxPoint x="2380" y="380" as="sourcePoint" />
            <mxPoint x="2310" y="450" as="targetPoint" />
            <Array as="points">
              <mxPoint x="2460" y="370" />
              <mxPoint x="2460" y="452" />
            </Array>
          </mxGeometry>
        </mxCell>
        <mxCell id="mBihHvgOK2dlNsI53XR4-34" value="&amp;lt;&amp;lt;include&amp;gt;&amp;gt;" style="html=1;verticalAlign=bottom;labelBackgroundColor=none;endArrow=open;endFill=0;dashed=1;rounded=0;exitX=0;exitY=0.5;exitDx=0;exitDy=0;entryX=1;entryY=0.5;entryDx=0;entryDy=0;" edge="1" parent="1" source="N1jHnSdW0tSeKLsQd51y-54" target="N1jHnSdW0tSeKLsQd51y-40">
          <mxGeometry width="160" relative="1" as="geometry">
            <mxPoint x="439.9999999999959" y="430" as="sourcePoint" />
            <mxPoint x="520.0000000000034" y="430" as="targetPoint" />
          </mxGeometry>
        </mxCell>
        <mxCell id="mBihHvgOK2dlNsI53XR4-35" value="&amp;lt;&amp;lt;extends&amp;gt;&amp;gt;" style="html=1;verticalAlign=bottom;labelBackgroundColor=none;endArrow=open;endFill=0;dashed=1;rounded=0;entryX=1;entryY=0.5;entryDx=0;entryDy=0;exitX=0;exitY=0.5;exitDx=0;exitDy=0;" edge="1" parent="1" source="N1jHnSdW0tSeKLsQd51y-28" target="N1jHnSdW0tSeKLsQd51y-27">
          <mxGeometry width="160" relative="1" as="geometry">
            <mxPoint x="280" y="190" as="sourcePoint" />
            <mxPoint x="440" y="190" as="targetPoint" />
          </mxGeometry>
        </mxCell>
        <mxCell id="mBihHvgOK2dlNsI53XR4-36" value="&amp;lt;&amp;lt;extends&amp;gt;&amp;gt;" style="html=1;verticalAlign=bottom;labelBackgroundColor=none;endArrow=open;endFill=0;dashed=1;rounded=0;exitX=0.5;exitY=0;exitDx=0;exitDy=0;entryX=0.5;entryY=1;entryDx=0;entryDy=0;" edge="1" parent="1" source="N1jHnSdW0tSeKLsQd51y-27" target="N1jHnSdW0tSeKLsQd51y-7">
          <mxGeometry width="160" relative="1" as="geometry">
            <mxPoint x="160" y="180" as="sourcePoint" />
            <mxPoint x="320" y="180" as="targetPoint" />
          </mxGeometry>
        </mxCell>
        <mxCell id="mBihHvgOK2dlNsI53XR4-37" value="&amp;lt;&amp;lt;extends&amp;gt;&amp;gt;" style="html=1;verticalAlign=bottom;labelBackgroundColor=none;endArrow=open;endFill=0;dashed=1;rounded=0;entryX=0.5;entryY=0;entryDx=0;entryDy=0;exitX=0.5;exitY=0;exitDx=0;exitDy=0;" edge="1" parent="1" source="N1jHnSdW0tSeKLsQd51y-54" target="N1jHnSdW0tSeKLsQd51y-39">
          <mxGeometry width="160" relative="1" as="geometry">
            <mxPoint x="230" y="360" as="sourcePoint" />
            <mxPoint x="390" y="360" as="targetPoint" />
            <Array as="points">
              <mxPoint x="590" y="350" />
              <mxPoint x="150" y="350" />
            </Array>
          </mxGeometry>
        </mxCell>
        <mxCell id="mBihHvgOK2dlNsI53XR4-38" value="&amp;lt;&amp;lt;extends&amp;gt;&amp;gt;" style="html=1;verticalAlign=bottom;labelBackgroundColor=none;endArrow=open;endFill=0;dashed=1;rounded=0;exitX=0;exitY=0.5;exitDx=0;exitDy=0;" edge="1" parent="1" source="N1jHnSdW0tSeKLsQd51y-40">
          <mxGeometry width="160" relative="1" as="geometry">
            <mxPoint x="280" y="470" as="sourcePoint" />
            <mxPoint x="220" y="480" as="targetPoint" />
            <Array as="points">
              <mxPoint x="260" y="400" />
              <mxPoint x="260" y="480" />
            </Array>
          </mxGeometry>
        </mxCell>
        <mxCell id="mBihHvgOK2dlNsI53XR4-39" value="&amp;lt;&amp;lt;extends&amp;gt;&amp;gt;" style="html=1;verticalAlign=bottom;labelBackgroundColor=none;endArrow=open;endFill=0;dashed=1;rounded=0;entryX=1;entryY=0.5;entryDx=0;entryDy=0;exitX=0;exitY=0.5;exitDx=0;exitDy=0;" edge="1" parent="1" source="N1jHnSdW0tSeKLsQd51y-40" target="N1jHnSdW0tSeKLsQd51y-39">
          <mxGeometry width="160" relative="1" as="geometry">
            <mxPoint x="210" y="380" as="sourcePoint" />
            <mxPoint x="370" y="380" as="targetPoint" />
          </mxGeometry>
        </mxCell>
      </root>
    </mxGraphModel>
  </diagram>
</mxfile>
